<?xml version="1.0" encoding="UTF-8"?>
<svg version="1.1" xmlns="http://www.w3.org/2000/svg" width="112" height="156">
<path d="M0 0 C36.96 0 73.92 0 112 0 C112 51.48 112 102.96 112 156 C75.04 156 38.08 156 0 156 C0 104.52 0 53.04 0 0 Z " fill="#020406" transform="translate(0,0)"/>
<path d="M0 0 C6.6 0 13.2 0 20 0 C20 2.64 20 5.28 20 8 C22.64 8 25.28 8 28 8 C28 10.31 28 12.62 28 15 C30.31 15 32.62 15 35 15 C35 16.98 35 18.96 35 21 C36.98 21 38.96 21 41 21 C41 17.7 41 14.4 41 11 C44.3 11 47.6 11 51 11 C51 7.37 51 3.74 51 0 C57.93 0 64.86 0 72 0 C72 2.64 72 5.28 72 8 C74.31 8 76.62 8 79 8 C79 10.31 79 12.62 79 15 C81.64 15 84.28 15 87 15 C87 18.3 87 21.6 87 25 C83.37 25 79.74 25 76 25 C76 28.63 76 32.26 76 36 C72.7 36 69.4 36 66 36 C66 39.63 66 43.26 66 47 C62.7 47 59.4 47 56 47 C56 47.99 56 48.98 56 50 C56.66 50 57.32 50 58 50 C58 50.66 58 51.32 58 52 C58.99 52 59.98 52 61 52 C61 53.65 61 55.3 61 57 C62.65 57 64.3 57 66 57 C66 57.99 66 58.98 66 60 C66.99 60 67.98 60 69 60 C69 60.66 69 61.32 69 62 C70.485 62.495 70.485 62.495 72 63 C72 64.32 72 65.64 72 67 C73.32 67 74.64 67 76 67 C76 67.99 76 68.98 76 70 C76.99 70 77.98 70 79 70 C79 72.64 79 75.28 79 78 C81.64 78 84.28 78 87 78 C87 81.3 87 84.6 87 88 C76.44 88 65.88 88 55 88 C55 85.69 55 83.38 55 81 C52.69 81 50.38 81 48 81 C48 79.68 48 78.36 48 77 C47.01 77 46.02 77 45 77 C45 75.68 45 74.36 45 73 C43.35 73 41.7 73 40 73 C40 72.01 40 71.02 40 70 C39.34 70 38.68 70 38 70 C38 69.01 38 68.02 38 67 C37.01 67 36.02 67 35 67 C35 73.93 35 80.86 35 88 C28.07 88 21.14 88 14 88 C14 85.69 14 83.38 14 81 C11.69 81 9.38 81 7 81 C7 78.36 7 75.72 7 73 C4.69 73 2.38 73 0 73 C0 48.91 0 24.82 0 0 Z " fill="#00CB33" transform="translate(13,22)"/>
<path d="M0 0 C0.99 0 1.98 0 3 0 C3 0.99 3 1.98 3 3 C3.66 3 4.32 3 5 3 C5 3.99 5 4.98 5 6 C6.65 6 8.3 6 10 6 C10 7.32 10 8.64 10 10 C10.99 10 11.98 10 13 10 C13 11.32 13 12.64 13 14 C15.31 14 17.62 14 20 14 C20 16.31 20 18.62 20 21 C21.44632813 20.98259766 21.44632813 20.98259766 22.921875 20.96484375 C24.18515625 20.95582031 25.4484375 20.94679688 26.75 20.9375 C28.00296875 20.92589844 29.2559375 20.91429688 30.546875 20.90234375 C33.28536501 20.97978973 35.41880293 21.17219185 38 22 C38 22.66 38 23.32 38 24 C38.99 24 39.98 24 41 24 C41 25.32 41 26.64 41 28 C41.99 28 42.98 28 44 28 C44 29.32 44 30.64 44 32 C45.65 32 47.3 32 49 32 C49 32.99 49 33.98 49 35 C49.66 35 50.32 35 51 35 C51 37.64 51 40.28 51 43 C53.64 43 56.28 43 59 43 C59 46.3 59 49.6 59 53 C48.77 53 38.54 53 28 53 C28 50.36 28 47.72 28 45 C25.36 45 22.72 45 20 45 C20 44.01 20 43.02 20 42 C19.34 42 18.68 42 18 42 C18 40.68 18 39.36 18 38 C16.35 38 14.7 38 13 38 C13 36.68 13 35.36 13 34 C12.01 34 11.02 34 10 34 C10 33.34 10 32.68 10 32 C9.01 32 8.02 32 7 32 C7 38.93 7 45.86 7 53 C0.4 53 -6.2 53 -13 53 C-13 50.36 -13 47.72 -13 45 C-15.64 45 -18.28 45 -21 45 C-21 42.69 -21 40.38 -21 38 C-23.31 38 -25.62 38 -28 38 C-28 30.08 -28 22.16 -28 14 C-25.69 14 -23.38 14 -21 14 C-21 16.31 -21 18.62 -21 21 C-14.07 21 -7.14 21 0 21 C0 14.07 0 7.14 0 0 Z " fill="#521604" transform="translate(48,89)"/>
<path d="M0 0 C0.99 0 1.98 0 3 0 C3 2.31 3 4.62 3 7 C5.31 7 7.62 7 10 7 C10 9.64 10 12.28 10 15 C12.64 15 15.28 15 18 15 C18 18.3 18 21.6 18 25 C14.7 25 11.4 25 8 25 C8 28.63 8 32.26 8 36 C-0.57142857 36.14285714 -0.57142857 36.14285714 -4 35 C-4.12375 34.360625 -4.2475 33.72125 -4.375 33.0625 C-4.58125 32.381875 -4.7875 31.70125 -5 31 C-5.66 30.67 -6.32 30.34 -7 30 C-7 29.34 -7 28.68 -7 28 C-7.99 28 -8.98 28 -10 28 C-10 27.01 -10 26.02 -10 25 C-11.65 25 -13.3 25 -15 25 C-15 23.35 -15 21.7 -15 20 C-15.99 20 -16.98 20 -18 20 C-18 19.34 -18 18.68 -18 18 C-18.66 18 -19.32 18 -20 18 C-20 17.01 -20 16.02 -20 15 C-16.7 15 -13.4 15 -10 15 C-10 11.37 -10 7.74 -10 4 C-6.7 4 -3.4 4 0 4 C0 2.68 0 1.36 0 0 Z " fill="#521604" transform="translate(89,54)"/>
<path d="M0 0 C6.6 0 13.2 0 20 0 C20 2.64 20 5.28 20 8 C15.71 8 11.42 8 7 8 C7 29.45 7 50.9 7 73 C4.69 73 2.38 73 0 73 C0 48.91 0 24.82 0 0 Z " fill="#10F25D" transform="translate(13,22)"/>
<path d="M0 0 C2.64 0 5.28 0 8 0 C8 3.3 8 6.6 8 10 C4.37 10 0.74 10 -3 10 C-3 13.63 -3 17.26 -3 21 C-6.3 21 -9.6 21 -13 21 C-13 24.63 -13 28.26 -13 32 C-16.3 32 -19.6 32 -23 32 C-23 32.99 -23 33.98 -23 35 C-25.64 35 -28.28 35 -31 35 C-31 31.7 -31 28.4 -31 25 C-27.7 25 -24.4 25 -21 25 C-21 21.37 -21 17.74 -21 14 C-17.37 14 -13.74 14 -10 14 C-10 10.7 -10 7.4 -10 4 C-6.7 4 -3.4 4 0 4 C0 2.68 0 1.36 0 0 Z " fill="#009721" transform="translate(92,37)"/>
<path d="M0 0 C6.6 0 13.2 0 20 0 C20 2.64 20 5.28 20 8 C15.71 8 11.42 8 7 8 C7 11.63 7 15.26 7 19 C3.7 19 0.4 19 -3 19 C-3 22.3 -3 25.6 -3 29 C-6.3 29 -9.6 29 -13 29 C-13 32.63 -13 36.26 -13 40 C-13.99 40 -14.98 40 -16 40 C-16 33.73 -16 27.46 -16 21 C-14.02 21 -12.04 21 -10 21 C-10 17.7 -10 14.4 -10 11 C-6.7 11 -3.4 11 0 11 C0 7.37 0 3.74 0 0 Z " fill="#25E67F" transform="translate(64,22)"/>
<path d="M0 0 C3.63 0 7.26 0 11 0 C11 3.3 11 6.6 11 10 C10.67 9.34 10.34 8.68 10 8 C9.01 8 8.02 8 7 8 C7 14.93 7 21.86 7 29 C0.4 29 -6.2 29 -13 29 C-13 26.36 -13 23.72 -13 21 C-8.71 21 -4.42 21 0 21 C0 14.07 0 7.14 0 0 Z " fill="#3E1004" transform="translate(48,113)"/>
<path d="M0 0 C3.3 0 6.6 0 10 0 C10 2.31 10 4.62 10 7 C9.01 7 8.02 7 7 7 C7 13.93 7 20.86 7 28 C0.07 28 -6.86 28 -14 28 C-14 25.69 -14 23.38 -14 21 C-9.38 21 -4.76 21 0 21 C0 14.07 0 7.14 0 0 Z " fill="#019721" transform="translate(41,82)"/>
<path d="M0 0 C2.31 0 4.62 0 7 0 C7 3.3 7 6.6 7 10 C3.7 10 0.4 10 -3 10 C-3 13.63 -3 17.26 -3 21 C-11.57142857 21.14285714 -11.57142857 21.14285714 -15 20 C-15.12375 19.360625 -15.2475 18.72125 -15.375 18.0625 C-15.58125 17.381875 -15.7875 16.70125 -16 16 C-16.66 15.67 -17.32 15.34 -18 15 C-18 14.34 -18 13.68 -18 13 C-15.69 13 -13.38 13 -11 13 C-11 9.37 -11 5.74 -11 2 C-7.37 2 -3.74 2 0 2 C0 1.34 0 0.68 0 0 Z " fill="#3D1004" transform="translate(100,69)"/>
<path d="M0 0 C2.31 0 4.62 0 7 0 C7 3.3 7 6.6 7 10 C-3.23 10 -13.46 10 -24 10 C-24 7.36 -24 4.72 -24 2 C-16.08 2 -8.16 2 0 2 C0 1.34 0 0.68 0 0 Z " fill="#3D0F04" transform="translate(100,132)"/>
<path d="M0 0 C2.64 0 5.28 0 8 0 C8 3.3 8 6.6 8 10 C-2.56 10 -13.12 10 -24 10 C-24 7.69 -24 5.38 -24 3 C-16.08 3 -8.16 3 0 3 C0 2.01 0 1.02 0 0 Z " fill="#019421" transform="translate(92,100)"/>
<path d="M0 0 C0.33 0 0.66 0 1 0 C1 2.31 1 4.62 1 7 C3.31 7 5.62 7 8 7 C8 15.25 8 23.5 8 32 C5.36 32 2.72 32 0 32 C0 21.44 0 10.88 0 0 Z " fill="#009B23" transform="translate(40,30)"/>
<path d="M0 0 C2.31 0 4.62 0 7 0 C7 7.92 7 15.84 7 24 C4.69 24 2.38 24 0 24 C0 16.08 0 8.16 0 0 Z " fill="#622A29" transform="translate(20,103)"/>
<path d="M0 0 C0.99 0 1.98 0 3 0 C3 2.31 3 4.62 3 7 C-1.29 7 -5.58 7 -10 7 C-10 6.01 -10 5.02 -10 4 C-6.7 4 -3.4 4 0 4 C0 2.68 0 1.36 0 0 Z " fill="#602B22" transform="translate(89,54)"/>
<path d="M0 0 C0.99 0.495 0.99 0.495 2 1 C1.67 3.31 1.34 5.62 1 8 C1.66 8 2.32 8 3 8 C3 11.63 3 15.26 3 19 C2.01 19 1.02 19 0 19 C0 12.73 0 6.46 0 0 Z " fill="#17E665" transform="translate(48,43)"/>
<path d="M0 0 C0.33 1.32 0.66 2.64 1 4 C2.32 4 3.64 4 5 4 C5 4.99 5 5.98 5 7 C5.99 7.33 6.98 7.66 8 8 C4.7 8 1.4 8 -2 8 C-2 6.68 -2 5.36 -2 4 C-1.34 4 -0.68 4 0 4 C0 2.68 0 1.36 0 0 Z " fill="#059424" transform="translate(84,85)"/>
<path d="M0 0 C3.3 0 6.6 0 10 0 C10 0.99 10 1.98 10 3 C7.69 3 5.38 3 3 3 C2.67 3.66 2.34 4.32 2 5 C2 4.34 2 3.68 2 3 C1.34 3 0.68 3 0 3 C0 2.01 0 1.02 0 0 Z " fill="#612D23" transform="translate(69,69)"/>
<path d="M0 0 C0.99 0 1.98 0 3 0 C3 0.99 3 1.98 3 3 C3.66 3.33 4.32 3.66 5 4 C3.68 4 2.36 4 1 4 C1 9.61 1 15.22 1 21 C0.67 21 0.34 21 0 21 C0 14.07 0 7.14 0 0 Z " fill="#412307" transform="translate(48,89)"/>
<path d="M0 0 C0.99 0 1.98 0 3 0 C3 3.63 3 7.26 3 11 C2.67 10.01 2.34 9.02 2 8 C1.34 8 0.68 8 0 8 C0 5.36 0 2.72 0 0 Z " fill="#3E1004" transform="translate(66,123)"/>
<path d="M0 0 C2.64 0 5.28 0 8 0 C8 0.99 8 1.98 8 3 C5.36 3 2.72 3 0 3 C0 2.01 0 1.02 0 0 Z " fill="#3E1004" transform="translate(89,121)"/>
<path d="M0 0 C2.64 0 5.28 0 8 0 C8 0.99 8 1.98 8 3 C5.36 3 2.72 3 0 3 C0 2.01 0 1.02 0 0 Z " fill="#029822" transform="translate(71,79)"/>
<path d="M0 0 C1.65 0 3.3 0 5 0 C5 1.32 5 2.64 5 4 C3.35 4 1.7 4 0 4 C0 2.68 0 1.36 0 0 Z " fill="#622926" transform="translate(61,123)"/>
<path d="M0 0 C0.66 0 1.32 0 2 0 C2 2.31 2 4.62 2 7 C1.01 7 0.02 7 -1 7 C-0.67 4.69 -0.34 2.38 0 0 Z " fill="#059220" transform="translate(59,92)"/>
</svg>
